<svg width="256" height="130" viewBox="0 0 256 130" fill="none" xmlns="http://www.w3.org/2000/svg">
<g clip-path="url(#clip0_105_649)">
<path d="M221.166 14.0291C221.04 14.0794 220.965 14.2054 220.914 14.0542C220.184 14.4572 221.62 14.6587 221.166 14.0291Z" fill="#D2DEEC"/>
<path d="M219.303 13.1223C220.36 13.8779 221.292 12.8452 222.577 13.1223C221.443 12.0896 222.854 12.3415 222.451 11.6866C222.451 12.2911 221.292 10.931 221.242 12.1904C220.209 11.1577 217.061 12.0392 219.303 13.1223Z" fill="#D2DEEC"/>
<path d="M223.08 12.9209C223.987 13.5758 223.987 12.6439 224.163 12.0646C223.282 11.7623 221.619 12.1653 223.08 12.9209Z" fill="#D2DEEC"/>
<path d="M225.574 13.0468C226.455 13.7269 229.78 13.1224 227.135 12.795C226.38 13.1979 226.783 11.863 225.725 12.669C225.271 11.5608 224.591 12.7698 225.574 13.0468Z" fill="#D2DEEC"/>
<path d="M249.023 18.3108C250.207 18.739 251.34 17.7064 249.552 17.5049C248.494 17.3034 247.034 18.9153 249.023 18.3108Z" fill="#D2DEEC"/>
<path d="M222.174 15.2381C223.081 15.6915 223.056 14.8603 222.325 14.6337C221.091 14.0292 219.958 15.7419 222.174 15.2381Z" fill="#D2DEEC"/>
<path d="M187.139 5.84326C186.937 5.94401 186.534 5.46546 186.383 5.36471C184.444 5.28915 187.265 7.02705 187.139 5.84326Z" fill="#D2DEEC"/>
<path d="M187.491 5.39001C188.876 6.69974 185.955 6.09525 188.625 7.5309C189.456 7.37978 192.906 8.3117 191.345 6.75011C192.352 5.79301 191.445 5.49076 190.514 6.14562C190.211 5.71744 188.725 5.84338 189.833 5.33964C191.949 2.84614 184.846 4.53366 187.491 5.39001Z" fill="#D2DEEC"/>
<path d="M193.461 8.51329C195.451 9.11777 197.063 6.42277 194.216 7.43025C193.234 7.78287 195.123 6.24646 193.41 6.67464C192.529 7.50581 191.043 9.14296 193.461 8.51329Z" fill="#D2DEEC"/>
<path d="M171.07 15.5403C171.271 15.6915 172.304 15.2633 171.926 14.961C171.574 14.7344 170.541 15.1122 171.07 15.5403Z" fill="#D2DEEC"/>
<path d="M155.957 20.0235C155.151 20.0235 154.723 21.2325 155.806 20.8295C156.562 21.3333 156.99 19.9984 155.957 20.0235Z" fill="#D2DEEC"/>
<path d="M158.174 17.5301C158.375 18.462 159.861 18.3865 161.322 18.6635C162.028 18.3109 160.189 17.3286 160.466 16.573C161.826 13.0217 167.292 12.4927 169.936 10.6289C165.478 10.3267 160.491 12.795 158.854 15.6159C159.03 16.1448 158.35 15.7167 158.3 16.1952C159.282 16.4975 156.184 17.2782 158.174 17.5049V17.5301ZM161.045 15.2633C160.869 15.1625 160.642 15.1877 160.416 15.2129C160.617 15.1625 160.869 15.1374 161.045 15.2633Z" fill="#D2DEEC"/>
<path d="M219.983 16.7996C220.058 17.0515 219.731 16.1196 219.983 16.7996Z" fill="#D2DEEC"/>
<path d="M208.447 15.213C208.397 15.3137 208.397 15.0618 208.447 15.213Z" fill="#D2DEEC"/>
<path d="M255.848 23.701C255.269 22.215 254.74 23.3736 253.859 22.9202C253.405 22.5424 253.783 22.089 253.405 22.5424C253.028 22.9957 252.952 22.6683 253.028 22.9957C253.279 23.0713 252.851 24.6329 252.599 23.8269C252.196 23.2476 253.002 22.7439 252.398 22.3409C251.365 21.9631 251.945 21.3838 250.836 21.3082C250.03 21.4342 250.509 20.8045 249.829 20.8045C249.149 20.8045 250.005 20.3511 249.023 20.2504C247.612 20.2 247.688 19.8474 246.806 19.4444C245.32 19.5199 243.658 19.2681 242.273 19.3688C242.071 19.3185 242.575 20.4015 242.474 20.4519C242.55 21.2578 240.308 20.3763 240.535 20.0741C240.61 19.6459 242.096 19.6459 241.215 19.2933C239.88 18.7643 240.762 19.4444 239.956 19.7466C239.024 20.0489 239.653 20.2 239.024 20.0489C238.067 19.5199 238.419 19.797 237.437 19.8474C236.53 19.6207 235.271 20.2 234.717 19.6459C234.717 18.8903 234.062 18.3362 233.76 18.0087C233.105 18.0591 232.551 17.8576 231.946 17.9584C231.694 18.6384 229.78 18.4621 229.427 18.311C228.924 17.6813 228.067 18.1599 227.589 17.6309C227.06 16.9005 228.017 16.9509 226.783 16.7494C225.649 16.2456 225.901 16.3212 225.347 16.8753C225.146 16.699 223.861 17.5554 223.962 17.3035C223.886 17.0516 224.113 16.6235 224.44 16.5983C225.876 16.4471 224.163 16.0945 224.214 16.1449C223.483 16.6738 222.224 16.0442 221.317 16.0945C221.393 16.6235 219.856 16.5227 219.957 16.8249C220.209 17.505 220.41 17.5806 220.083 17.7065C219.705 18.0339 219.68 17.6057 219.277 17.8828C218.496 18.1347 218.043 17.2028 217.262 17.7569C217.086 18.0591 217.061 17.1272 216.708 17.505C216.355 17.8828 216.632 17.3287 216.204 17.5554C214.794 18.1599 215.625 16.3716 214.617 17.7569C214.29 19.4444 211.469 16.6486 212.3 16.699C212.88 16.8249 213.157 17.0264 212.678 16.3212C212.3 15.893 212.98 15.8175 212.376 15.5656C211.771 15.3137 212.174 14.81 211.696 14.8856C206.054 14.0796 210.008 17.0013 206.91 15.7671C205.802 15.7923 206.079 15.3641 205.097 15.0871C204.518 14.5833 201.873 15.3137 201.445 15.0871C200.84 14.0292 201.823 14.4322 200.009 14.6337C199.808 14.9107 194.317 16.699 196.71 15.1878C197.692 13.9788 199.908 14.2811 201.042 13.1728C202.024 12.2157 201.571 12.518 200.966 11.4853C200.588 10.6038 201.47 10.6541 200.588 10.6038C199.203 10.226 197.868 11.1327 196.936 10.8556C195.954 9.47036 195.526 10.6541 195.098 10.1504C194.795 9.77261 197.037 8.94144 194.619 9.52074C191.647 10.2008 192.428 9.77261 191.32 10.9816C190.866 11.4098 192 10.9816 190.866 11.4098C188.171 12.392 190.438 11.4601 188.096 11.5861C186.282 11.6113 186.811 11.8883 185.829 12.5432C184.494 12.6439 183.058 12.9713 182.051 13.727C181.597 14.1048 181.043 13.601 181.597 14.1048C182.353 15.0871 177.391 14.5833 177.819 15.616C178.877 17.0013 179.406 17.2279 179.205 17.2531C178.776 17.8576 177.492 16.7746 177.064 16.6738C176.434 16.6235 177.643 16.1701 176.434 16.6235C175.074 17.0768 174.344 17.3035 175.225 17.8828C177.643 18.311 173.689 19.2933 174.167 16.422C174.772 15.8678 173.336 16.296 173.21 16.8753C172.127 17.8324 173.009 17.3791 173.21 18.5628C173.336 19.5703 172.631 19.6207 173.21 19.8978C174.47 20.4771 174.595 19.9733 175.401 20.5274C176.081 21.812 176.107 22.0386 176.988 22.6683C175.175 22.895 175.301 21.3334 174.092 20.9052C171.976 24.0032 175.678 21.2578 172.203 23.6254C173.865 24.4314 170.037 23.1217 170.389 22.9957C174.167 24.0032 172.455 19.0918 171.775 17.6561C173.563 15.0619 171.145 15.893 169.961 16.1449C169.382 16.7746 169.936 17.6057 169.231 17.7317C167.367 17.6057 168.551 18.3362 168.752 18.8147C167.014 20.8045 171.875 19.394 169.231 21.7616C168.903 21.2075 161.347 18.0843 162.355 19.1673C163.715 19.6711 163.765 21.4845 162.732 21.3838C161.851 20.9304 160.491 21.1823 159.71 21.7112C159.685 20.7793 159.584 20.4267 158.148 21.0815C158.098 21.4593 155.579 21.7616 155.378 22.1394C154.95 22.6179 153.665 23.8521 153.287 23.3987C151.877 21.7112 153.086 22.5424 153.665 21.8875C153.615 21.8623 151.423 20.7541 151.726 21.686C151.549 22.492 153.539 24.5825 152.028 24.2047C151.423 23.701 151.524 23.3736 150.718 23.8269C147.645 25.5396 150.315 25.0611 149.131 25.7159C148.577 25.7159 146.739 24.4566 147.343 26.2952C145.58 27.0005 146.134 24.104 144.17 23.0965C145.605 23.5499 150.92 25.4137 149.988 22.2653C149.862 21.409 146.386 22.0135 146.512 21.2578C147.016 20.3511 145.379 20.9808 145.253 20.5274C145.076 20.1748 145.253 20.0237 144.673 20.0489C143.364 20.0992 143.993 19.4444 143.112 19.8474C142.205 20.2504 143.741 19.52 142.482 19.7718C141.626 19.1925 143.867 18.5628 140.946 18.2606C139.712 18.0339 140.518 19.1421 138.276 18.2102C137.898 18.8399 136.84 18.5377 136.185 19.3436C135.556 19.2429 134.221 19.3436 133.919 19.797C133.641 20.8297 132.634 19.6711 132.558 20.7037C131.979 20.0992 131.752 20.7037 131.098 21.006C129.863 22.6683 130.619 21.4845 131.878 21.5097C131.198 22.7439 129.889 23.3232 129.41 24.7336C128.906 25.0359 129.284 25.7159 128.352 25.8671C127.798 27.0257 125.909 26.7234 125.305 28.0583C122.433 29.8214 126.614 35.5388 128.302 30.8793C129.209 30.7029 128.906 33.4483 130.166 34.2039C130.418 34.5817 130.292 35.7403 130.972 35.1862C132.307 34.6321 133.49 34.1284 132.886 32.1638C135.782 31.0556 132.357 29.771 133.591 27.605C134.372 27.3783 135.908 26.5471 136.311 25.6656C136.135 23.3987 138.855 25.4641 137.621 21.8875C137.495 25.187 140.518 24.4314 137.394 26.5723C137.193 26.9249 136.84 26.8997 136.714 27.3027C135.304 27.076 136.236 30.4511 137.092 30.6778C138.629 31.1059 145.076 28.7887 142.306 26.6982C142.935 26.396 142.255 26.0434 142.306 25.59C141.978 25.4641 142.054 25.2878 142.255 25.0863C141.852 25.6656 142.684 25.8167 142.608 26.5219C141.777 26.8242 143.616 27.3279 143.213 27.8316C141.021 29.494 141.374 30.9044 140.492 33.2972C140.669 32.7935 141.248 31.1311 140.417 31.1563C139.737 31.5845 137.797 31.0808 137.848 32.0379C137.445 32.3653 136.941 31.9119 136.588 32.3905C136.311 33.0453 137.067 32.592 137.294 32.4408C137.571 32.7431 137.848 32.1134 138.15 32.4912C138.603 32.2645 138.427 34.7329 137.319 33.3224C134.75 32.6927 137.243 36.093 135.581 35.9166C135.581 36.5463 135.656 36.4959 134.498 36.4456C133.465 34.078 130.821 38.8635 130.921 36.773C130.367 36.2189 129.838 36.9241 129.234 36.8234C129.511 35.9166 128.226 36.9241 128.377 35.9418C128 35.8915 127.471 35.8411 127.118 36.0426C127.773 37.9064 124.751 36.5715 124.222 38.3598C123.844 38.9139 123.667 39.3421 124.146 39.3924C124.776 39.5184 125.582 39.9466 125.506 40.4503C125.556 40.2236 125.305 39.5939 124.826 39.7451C122.484 38.3346 122.761 40.9792 120.292 41.357C119.512 40.274 119.688 41.357 119.763 41.9363C119.209 42.2134 119.008 41.6593 118.454 41.7096C118.152 41.7096 117.169 41.9363 117.799 42.2889C117.421 42.8934 119.486 42.9438 119.562 43.4223C119.814 44.5809 120.519 44.1276 120.166 45.8403C118.353 48.7368 113.719 43.7498 114.625 49.4924C114.827 50.4243 114.197 50.9532 114.651 51.6081C115.331 51.7088 114.071 52.8423 115.633 52.3637C115.834 51.7088 116.237 50.7266 115.633 50.2732C116.212 49.4924 116.892 47.1752 116.263 48.7872C115.582 50.1221 116.187 50.9784 115.633 52.3637C116.867 53.3712 119.083 53.1193 120.141 52.0867C121.023 51.4822 120.721 50.3739 121.35 49.6687C121.3 48.9383 124.473 48.1575 122.962 47.8804C123.441 47.1752 123.743 46.4196 124.876 46.9233C126.211 47.3263 127.798 44.6313 128.629 47.3263C129.788 48.8124 133.289 49.442 132.105 51.8852C133.364 51.3814 132.76 50.5754 132.961 49.845C136.765 50.6762 126.816 45.9159 130.543 44.858C130.141 44.8076 130.367 44.8076 130.669 44.9084C130.292 45.4625 130.846 45.6136 131.324 45.2862C131.627 46.5959 133.641 47.6789 134.876 47.9812C134.8 50.3236 135.153 50.2984 136.614 48.8124C136.261 48.7368 135.279 50.1976 135.43 50.5251C136.135 50.8525 135.959 50.7014 136.034 51.4822C136.79 51.3562 135.833 52.3385 136.538 52.6156C137.42 54.0512 138.175 51.1799 136.739 51.4066C137.243 51.3059 137.47 51.9607 137.948 51.9607C139.208 52.1622 135.505 48.8124 137.596 50.0969C138.956 49.5428 136.261 49.2405 139.636 49.165C140.165 49.5931 140.266 48.4345 141.752 49.1146C141.978 49.3665 141.752 49.4672 141.5 49.5176C140.719 50.0969 139.636 49.2405 139.384 50.5754C139.384 50.9029 140.089 50.9029 139.787 51.457C138.981 52.3385 140.795 51.6333 140.266 52.6911C141.324 52.5148 140.392 53.5475 141.198 53.4971C142.532 52.5904 141.878 53.6986 143.213 52.8171C145.303 54.3031 146.537 51.3562 146.663 53.6986C147.394 52.1622 149.56 53.2453 151.071 52.2126C155.05 53.0689 150.995 51.4822 152.733 50.248C151.65 51.1799 153.111 52.5904 153.59 53.6986C153.967 54.5046 153.035 55.1343 153.791 56.1921C155.378 56.8722 154.597 58.056 156.007 58.4086C157.242 58.333 156.839 60.222 158.199 60.6502C159.383 62.1614 160.642 60.9021 161.297 61.028C161.675 63.2948 165.503 62.64 166.762 62.5392C169.785 61.7332 167.468 64.529 170.742 63.2193C168.601 63.32 169.911 64.8816 171.22 64.4534C171.145 65.1083 170.288 65.0327 169.81 65.0831C169.659 65.9143 171.951 66.5439 172.127 65.5617C172.883 62.2874 173.664 82.2858 177.895 73.9741C178.071 72.0851 177.114 69.7679 179.633 69.516C180.363 68.6848 181.27 66.5691 182.378 66.7958C182.655 63.6475 186.61 67.0225 186.056 63.5467C186.333 63.4208 186.383 63.0682 186.232 62.7155C186.383 63.0933 186.358 63.4208 186.056 63.5467C186.786 63.7734 186.156 65.0327 186.61 65.7632C186.71 66.3173 187.819 66.6951 187.693 67.4255C188.146 68.5589 187.743 70.8005 189.179 69.8183C189.808 69.9694 189.405 68.4078 190.085 68.9871C192.025 72.5384 189.229 76.3165 193.032 78.0796C191.496 77.198 192.856 79.9182 193.032 80.4723C194.04 81.102 196.609 82.0591 194.619 80.1197C194.871 77.8277 191.471 76.8706 191.773 74.503C192.579 73.3948 191.496 71.7325 192.579 71.8836C192.579 72.7399 193.385 72.7651 193.914 73.1681C193.964 72.5636 193.486 72.1103 194.065 71.6065C195.022 71.2791 196.307 71.531 197.138 71.2539C196.281 71.531 195.022 71.2539 194.065 71.6065C193.309 72.7651 194.543 75.3846 195.853 73.9993C194.921 74.0245 195.324 75.9387 195.475 75.9135C200.185 72.7399 198.876 71.3295 196.231 66.9973C196.634 66.1158 198.322 66.0654 196.684 65.209C196.508 64.1008 196.407 64.0253 196.684 65.209C197.339 66.1158 198.145 65.1335 198.951 65.7128C198.75 66.3928 199.556 66.4684 199.48 65.7128C205.172 64.9572 209.58 58.736 206.18 54.5046C205.223 53.1445 209.127 52.4645 207.364 52.1874C205.651 51.054 207.112 53.3712 204.845 51.4822C204.316 50.1976 206.86 50.2732 207.59 49.3161C207.061 52.5148 210.336 48.1323 209.807 51.3562C212.023 52.5148 210.361 51.9355 210.613 53.7238C210.21 56.3432 214.189 53.7238 212.552 51.4066C210.235 51.4066 213.333 47.8553 214.265 47.2508C213.031 47.4774 212.099 48.7872 210.714 48.9131C212.653 48.4345 214.391 47.4019 214.466 45.3114C214.315 45.7144 213.988 47.15 214.265 47.2508C217.161 48.1323 218.37 45.0091 219.932 42.8431C220.99 41.483 220.99 39.7199 221.166 38.1331C220.914 37.5538 221.116 37.1004 220.436 36.7982C219.982 36.2189 219.856 36.5211 219.302 36.9241C217.942 38.1835 218.924 36.7226 218.874 36.2944C218.748 35.2114 218.043 36.7226 217.993 36.5715C216.255 35.6648 217.212 35.7403 218.068 35.2366C219 34.3551 220.335 33.2216 221.191 32.3401C221.418 32.0882 221.091 31.8867 221.619 31.9119C222.199 32.1134 222.753 31.0304 223.105 31.3578C223.811 32.1134 224.289 30.98 224.994 31.4837C226.38 31.7356 227.412 30.7785 228.521 31.4334C229.15 31.9875 230.334 31.1311 231.039 31.5089C230.007 30.6778 232.525 29.091 233.004 28.6628C233.684 29.5695 235.523 27.6553 234.767 29.7458C234.767 29.7458 235.094 30.0481 235.397 29.7458C235.699 29.4436 235.271 29.6199 235.699 29.4436C237.361 29.0658 236.253 27.5294 237.89 27.8065C238.898 28.3354 236.933 28.2598 237.386 29.0658C237.386 29.2673 237.89 29.1162 237.336 29.494C236.052 30.174 236.026 30.4511 234.994 31.3074C233.155 32.2394 234.641 32.1638 233.86 32.5668C233.407 32.8187 234.414 32.189 233.407 32.8187C231.971 33.2972 231.367 35.3373 231.518 36.4708C230.913 37.6797 231.845 37.1508 231.896 37.5538C231.82 37.982 231.442 36.7982 231.719 38.1835C232.022 39.5687 231.266 39.3673 232.022 39.5687C233.407 40.7525 232.777 38.4857 233.331 38.1835C234.112 37.4027 233.76 37.8309 234.339 37.6797C234.792 37.4027 234.414 36.4708 234.717 36.4204C235.17 36.2944 234.263 36.6219 235.17 36.2944C236.102 35.967 236.127 35.6648 236.127 35.6648C236.127 35.6648 235.321 36.4959 236.052 35.0855C236.933 32.8942 236.933 34.2291 237.059 32.995C235.825 32.6172 235.699 32.1386 236.757 31.8615C236.757 31.8615 236.958 31.3074 237.059 31.1059C237.16 30.9044 236.807 30.1488 237.311 30.6022C238.016 31.2067 238.595 30.4511 239.074 30.4259C239.578 32.1134 240.233 29.6955 240.787 30.3503C241.165 30.8037 241.467 29.8466 241.744 30.3C242.222 31.1815 243.104 29.1917 243.708 29.2421C244.615 28.9902 244.867 28.8643 245.673 28.7887C246.051 28.8643 245.849 27.9072 246.555 28.1591C247.209 28.3858 247.663 27.882 247.713 27.8065C247.612 28.0583 249.048 28.4613 248.569 27.8065C248.116 26.9249 247.386 26.3708 246.68 25.59C245.396 24.8344 247.31 25.0863 247.688 25.59C248.418 26.5723 248.847 25.3129 249.275 25.0863C249.602 24.9603 248.947 24.5825 249.149 24.3307C249.325 24.0788 248.947 23.8773 249.375 23.7765C250.106 23.3736 249.426 24.7588 249.778 24.7085C251.264 24.2803 252.07 25.9426 253.38 25.7663C254.337 26.5471 254.161 24.8596 254.312 24.7085C254.866 24.7085 255.949 24.507 255.647 23.7262L255.848 23.701Z" fill="#D2DEEC"/>
<path d="M242.148 19.5702V19.4694C242.047 19.3435 242.072 19.8976 242.148 19.5702Z" fill="#D2DEEC"/>
<path d="M221.342 16.0693C221.368 15.9686 221.368 15.9182 221.368 15.9182C221.368 15.9182 221.191 15.9434 221.342 16.0693Z" fill="#D2DEEC"/>
<path d="M174.243 20.9052C174.873 19.8978 173.79 21.1067 174.243 20.9052Z" fill="#D2DEEC"/>
<path d="M177.97 15.6159C178.172 16.0692 176.913 14.2306 177.97 15.6159Z" fill="#D2DEEC"/>
<path d="M221.872 44.3793C223.005 44.3541 223.66 40.7272 222.88 37.8811C222.074 33.2215 222.023 43.12 221.872 44.3793Z" fill="#D2DEEC"/>
<path d="M220.814 46.9989C219.882 48.0819 221.469 49.4168 220.89 47.8804C221.268 48.0819 221.444 47.6286 221.771 47.5782C223.635 49.2657 222.048 47.3263 224.29 47.0744C224.869 45.3365 222.703 46.4448 222.074 45.1099C221.948 45.8655 221.645 47.0996 220.814 46.9989Z" fill="#D2DEEC"/>
<path d="M214.315 54.9076C216.683 55.0839 216.658 53.0186 217.867 55.5373C219.831 52.7415 221.872 56.3432 221.519 48.8627C220.285 48.0819 220.134 54.6053 218.421 52.0866C217.338 51.9607 218.32 54.026 217.187 53.5727C216.154 52.8926 214.492 54.2023 214.315 54.8824V54.9076Z" fill="#D2DEEC"/>
<path d="M215.298 55.9653C215.625 55.9653 216.658 55.5623 216.406 55.0837C216.331 55.1593 214.618 55.386 215.298 55.9653Z" fill="#D2DEEC"/>
<path d="M213.056 56.1165C213.661 56.7966 213.686 58.9374 214.442 56.6706C215.298 55.4868 212.981 54.8572 213.056 56.1165Z" fill="#D2DEEC"/>
<path d="M239.931 99.9921C238.722 99.0098 236.102 98.1535 238.621 99.8914C238.848 100.697 239.654 100.949 239.931 99.9921Z" fill="#D2DEEC"/>
<path d="M244.162 115.936C242.55 115.885 243.381 115.533 242.248 117.699C236.732 120.293 240.938 123.542 243.003 118.756C244.011 118.908 245.497 116.389 244.187 115.936H244.162Z" fill="#D2DEEC"/>
<path d="M247.739 112.762C246.303 114.449 246.076 111.074 245.497 112.611C244.742 112.737 245.573 113.744 244.666 114.525C245.245 115.104 245.875 115.205 245.346 116.212C245.648 117.321 246.983 115.406 246.857 114.878C246.454 114.021 248.318 114.021 247.739 112.762Z" fill="#D2DEEC"/>
<path d="M244.162 110.722C244.238 111.754 245.547 111.78 245.018 110.697C244.616 110.848 243.532 109.765 244.162 110.722Z" fill="#D2DEEC"/>
<path d="M226.632 115.608C225.927 116.263 223.207 115.003 224.164 116.515C224.617 120.116 227.262 117.749 226.632 115.608Z" fill="#D2DEEC"/>
<path d="M229.932 103.896C228.698 98.8588 223.031 96.7683 222.653 91.1768C221.645 90.0938 221.645 93.4688 221.52 94.0733C222.023 98.3047 217.893 95.0808 217.112 93.7207C217.213 93.0406 219.102 92.4613 217.993 91.7813C215.601 91.5042 214.115 90.9249 213.032 93.7459C214.115 95.0304 212.452 93.7207 212.024 94.3C210.538 91.2524 208.876 97.6499 208.397 95.509C204.695 101.453 199.128 96.4409 202.906 107.019C204.292 109.085 201.194 111.049 205.576 110.47C208.775 109.563 215.223 105.13 217.162 109.664C217.817 111.654 218.195 108.833 219.001 108.657C219.63 108.657 218.472 110.797 218.447 110.999C219.505 109.614 220.008 111.125 218.623 111.452C218.396 112.082 219.908 111.402 220.109 111.452C223.711 118.681 231.443 109.085 229.907 103.896H229.932Z" fill="#D2DEEC"/>
<path d="M229.73 86.215C230.133 85.1319 228.496 84.8801 227.967 84.3008C227.312 85.2075 229.453 84.7541 229.73 86.215Z" fill="#D2DEEC"/>
<path d="M227.212 86.769C225.7 86.9957 228.27 88.0535 229.227 86.5675C228.824 84.477 229.353 86.9453 227.212 86.769Z" fill="#D2DEEC"/>
<path d="M226.154 87.6255C224.391 85.409 221.368 84.6282 219.001 83.6963C218.623 83.7467 216.532 86.0387 216.658 84.5023C215.525 84.3008 215.626 85.006 215.752 85.8372C216.054 85.0312 220.991 86.9706 219.227 88.6329C218.774 89.8671 220.562 87.8521 221.167 89.6908C221.368 89.1115 221.368 87.8521 220.89 87.6506C222.048 92.5117 222.955 86.9958 224.844 89.187C225.575 89.6404 227.338 91.7057 227.791 90.3708C227.791 89.7915 224.139 88.507 226.179 87.6506L226.154 87.6255Z" fill="#D2DEEC"/>
<path d="M215.726 84.1243C218.345 83.948 214.617 81.8575 214.164 83.3435C214.617 83.6206 215.071 84.4266 215.726 84.1243Z" fill="#D2DEEC"/>
<path d="M212.048 84.6784C210.613 85.6355 213.207 85.0814 213.686 85.3081C213.862 84.4266 212.477 84.7036 212.048 84.6784Z" fill="#D2DEEC"/>
<path d="M211.62 81.1523C211.167 82.4368 212.451 84.1747 212.225 81.9079C212.426 81.9079 212.804 82.3361 212.879 82.0842C212.376 81.6812 212.703 79.0114 211.62 81.1523Z" fill="#D2DEEC"/>
<path d="M205.45 84.905C206.407 85.031 205.324 87.5749 206.508 86.8192C207.163 86.0888 206.004 83.4946 207.112 85.031C206.986 87.5749 208.8 86.5674 208.17 85.6355C208.548 84.628 207.465 84.3257 208.246 83.6457C209.807 81.8826 205.752 84.5272 206.407 82.4367C206.86 81.3537 210.11 82.8145 209.883 81.3537C207.767 81.1018 205.601 81.4041 205.425 84.905H205.45Z" fill="#D2DEEC"/>
<path d="M198.574 82.336C199.204 83.1168 198.952 84.7288 200.06 84.6784C200.715 84.5021 200.388 85.2829 200.917 85.1569C202.176 84.2502 203.511 86.92 203.813 83.9983C204.216 82.8901 205.601 81.3537 204.921 80.85C204.191 79.3639 205.45 79.238 205.45 78.2557C203.536 75.6615 203.914 78.558 201.471 79.6914C200.614 80.8248 199.96 79.6158 200.085 81.3033C199.103 80.7744 198.902 81.2026 199.808 81.7567C198.851 80.6737 198.549 80.8752 198.599 82.336H198.574ZM202.503 80.724C202.503 80.8248 202.554 80.9255 202.529 81.0263C202.529 80.9255 202.478 80.7996 202.503 80.724Z" fill="#D2DEEC"/>
<path d="M208.397 76.5432C208.725 76.4172 208.876 76.3921 208.649 75.9639C207.843 75.6113 207.465 77.6262 208.397 76.5432Z" fill="#D2DEEC"/>
<path d="M209.782 75.6364C208.396 76.1905 209.756 77.5758 210.159 78.1551C210.537 77.9788 210.235 76.1402 210.714 77.2988C211.645 77.4247 210.663 74.2259 210.386 73.9993C210.487 75.6616 209.782 74.9564 209.756 75.6364H209.782Z" fill="#D2DEEC"/>
<path d="M209.958 72.6392C209.001 73.1429 209.58 74.1 210.033 74.5282C210.26 74.0244 210.764 72.8155 209.958 72.6392Z" fill="#D2DEEC"/>
<path d="M209.102 74.8051C209.707 73.4954 207.918 74.1755 208.195 75.1829C208.674 75.1829 208.825 75.2081 209.102 74.8051Z" fill="#D2DEEC"/>
<path d="M208.094 73.3445C207.817 73.0674 207.817 73.8482 207.842 74.0497C208.321 74.2512 208.674 73.2689 208.094 73.3445Z" fill="#D2DEEC"/>
<path d="M208.473 71.2791C207.415 71.4554 208.75 72.7903 208.901 73.1177C209.732 72.6391 209.48 71.5561 208.473 71.2791Z" fill="#D2DEEC"/>
<path d="M207.188 72.1606L206.81 71.9087C206.659 73.4451 208.196 73.294 207.188 72.1606Z" fill="#D2DEEC"/>
<path d="M206.13 69.7678C206.911 73.6969 208.195 70.2211 208.145 68.1054C205.475 67.4506 207.717 69.9189 206.13 69.7678Z" fill="#D2DEEC"/>
<path d="M207.642 63.0681C207.591 61.0028 205.752 64.2267 206.609 64.7304C207.087 65.2594 207.616 63.4459 207.642 63.0681Z" fill="#D2DEEC"/>
<path d="M199.858 66.9972C199.203 66.8209 198.422 66.7453 198.12 67.5261C197.793 68.8358 200.437 68.055 199.858 66.9972Z" fill="#D2DEEC"/>
<path d="M206.911 89.9929H206.407C206.306 89.3632 205.274 90.2196 206.483 90.2196C206.709 91.0255 207.49 90.3959 206.886 89.9929H206.911Z" fill="#D2DEEC"/>
<path d="M209.177 90.5218C210.437 90.144 209.48 88.9099 209.102 90.1692C208.699 90.2196 208.724 90.6226 209.177 90.5218Z" fill="#D2DEEC"/>
<path d="M207.616 88.9351C207.364 89.1114 207.037 89.0358 206.76 89.0106C206.76 89.5144 207.994 89.2121 207.616 88.9351Z" fill="#D2DEEC"/>
<path d="M203.939 88.7839C202.327 89.3129 204.921 89.6403 205.526 89.5144C206.206 88.9351 204.241 88.8091 203.939 88.7839Z" fill="#D2DEEC"/>
<path d="M202.654 88.9855C200.866 87.1973 198.75 88.1292 196.685 87.0461C194.141 88.6077 203.535 89.8923 202.654 88.9855Z" fill="#D2DEEC"/>
<path d="M196.257 85.4845C196.559 83.7718 195.224 84.7541 195.123 82.991C194.191 83.1674 195.123 81.8073 194.166 81.8576C192.025 81.2783 191.219 78.2307 189.028 77.9285C187.618 77.9788 190.967 81.2531 191.396 81.2028C191.874 82.714 195.854 89.7915 196.257 85.4845Z" fill="#D2DEEC"/>
<path d="M178.626 75.5104C177.971 74.4777 177.644 75.2333 177.997 76.0645C177.241 78.8099 180.364 77.9283 178.626 75.5104Z" fill="#D2DEEC"/>
<path d="M127.421 79.7922C127.22 79.5403 126.892 79.3892 126.716 79.7922C126.615 80.296 127.522 80.3967 127.421 79.7922Z" fill="#D2DEEC"/>
<path d="M134.347 33.6245C134.75 33.4734 134.952 33.146 134.523 32.8438C133.667 32.9697 133.239 34.8335 134.347 33.6245Z" fill="#D2DEEC"/>
<path d="M129.964 35.035C129.385 34.3298 128.982 35.2869 129.108 35.7151C129.385 36.4958 130.242 35.2617 129.964 35.035Z" fill="#D2DEEC"/>
<path d="M127.094 35.4884C128.454 35.6899 128.705 33.8261 128.302 33.1712C128.227 32.6926 127.824 33.6497 127.648 33.7001C126.691 33.3727 126.691 35.0098 127.068 35.4884H127.094Z" fill="#D2DEEC"/>
<path d="M114.071 38.939C114.625 39.4679 115.255 38.0574 115.809 38.7123C117.043 38.813 116.212 37.327 116.716 36.6973C117.421 36.521 116.64 35.9669 116.615 35.5891C115.658 35.9165 114.273 35.3876 115.532 36.7225C115.582 35.9921 113.064 36.5714 114.625 37.4529C114.625 37.9567 113.467 38.41 114.071 38.939ZM116.64 36.6973C116.414 36.647 116.464 36.3699 116.237 36.3951C116.464 36.3951 116.414 36.647 116.64 36.6973Z" fill="#D2DEEC"/>
<path d="M116.892 33.952C116.263 35.312 117.573 34.1534 117.119 35.2365C117.547 36.1432 117.573 36.0425 118.479 35.6898C118.807 35.7906 118.479 36.1684 118.429 36.3447C119.109 36.2943 118.429 36.8988 118.731 37.2011C118.807 37.8056 118.152 37.3018 117.85 37.4278C118.227 39.1405 116.892 38.4856 117.573 39.0649C118.253 38.9642 118.605 39.6946 119.159 39.1656C119.059 40.1228 117.371 39.4679 117.346 40.7272C118.656 40.2991 119.713 39.7449 120.872 39.9213C121.25 39.8961 122.383 39.3671 121.451 39.3168C121.703 38.7627 122.484 37.5033 121.199 38.1582C120.57 37.2514 120.469 34.8839 118.63 34.6068C121.376 31.8111 116.565 33.952 118.983 32.4911C119.965 30.325 115.86 33.0956 116.892 34.0023V33.952Z" fill="#D2DEEC"/>
<path d="M127.043 49.6939C127.32 49.9458 126.968 50.9533 127.497 50.5755C129.008 50.651 127.018 47.7293 127.043 49.6939Z" fill="#D2DEEC"/>
<path d="M127.295 48.6108C127.723 48.8627 127.874 47.5278 127.673 47.4019C127.219 47.427 126.867 48.2582 127.295 48.6108Z" fill="#D2DEEC"/>
<path d="M131.778 51.5829C131.173 51.3814 128.73 51.7088 130.619 52.0614C131.702 53.346 131.853 52.8422 131.778 51.5829Z" fill="#D2DEEC"/>
<path d="M138.301 54.2023C138.503 54.5549 139.611 54.7312 139.636 54.2527C139.158 53.7741 136.589 53.5726 138.301 54.2023Z" fill="#D2DEEC"/>
<path d="M144.825 54.4795C145.656 54.6558 145.883 53.2201 144.825 54.0009C143.818 53.9253 143.717 54.958 144.825 54.4795Z" fill="#D2DEEC"/>
<path d="M157.796 61.8592C157.519 61.3303 157.065 62.3881 157.267 62.5896C157.569 62.8918 157.745 62.0103 157.796 61.8592Z" fill="#D2DEEC"/>
<path d="M163.035 64.3779C162.707 63.6223 160.944 63.8238 161.171 62.6904C161.574 63.0934 161.07 60.2976 159.962 62.8415C157.645 64.9824 156.99 62.1615 155.403 59.7939C155.957 57.653 153.766 56.7715 153.439 54.8069C154.396 53.6231 152.582 51.7341 151.247 52.3386C150.744 52.3134 149.056 52.943 147.998 52.8675C146.89 52.5149 147.62 53.069 147.041 53.2201C146.991 54.1268 145.958 53.2201 146.563 54.6306C147.696 55.5625 144.044 57.2752 145.706 58.8368C144.674 56.3433 140.644 58.1316 138.629 57.4515C138.503 56.4944 135.077 55.3862 135.052 57.1241C135.858 59.3657 131.576 56.973 131.123 56.4188C130.821 55.8395 130.191 56.4188 129.738 56.1418C128.554 55.5625 129.259 55.7892 129.058 56.4944C129.31 55.0084 127.572 55.6129 128.075 55.1343C128.907 54.5046 128.554 53.3964 128.907 52.6912C128.453 52.7416 127.471 51.8096 127.093 52.7164C126.766 53.2201 126.74 52.8171 126.816 53.5223C127.32 55.3862 125.103 54.3787 127.169 56.57C126.64 55.9403 125.758 55.1847 126.791 54.5046C127.169 53.8246 126.438 53.1949 127.093 52.6912C126.74 52.9934 126.489 52.1119 126.237 52.3386C125.809 52.7164 125.355 52.5149 124.927 52.8171C123.391 52.0867 120.721 53.2453 119.537 54.3535C119.562 54.0765 118.933 54.3031 118.882 53.875C118.378 54.3787 117.27 54.1772 117.069 53.5727C116.389 55.0084 113.265 56.6707 114.122 58.5345C110.495 61.9096 111.88 59.9198 114.877 60.4488C113.895 60.6251 111.603 59.9702 111.175 61.3051C110.142 62.9674 108.858 65.0831 108.858 65.9647C109.941 66.4684 108.807 66.6196 109.361 67.7782C109.865 69.3649 108.505 69.5412 110.772 69.4405C111.779 69.7931 112.031 71.6066 112.787 70.3724C114.626 71.0021 113.593 69.6168 114.525 70.3724C114.726 70.2465 116.716 70.6495 116.993 70.1457C116.439 70.725 114.424 70.322 114.097 70.1205C113.794 71.0776 113.366 70.2465 112.787 70.3724C112.031 71.6066 111.779 69.7931 110.772 69.4405C109.966 68.7604 107.75 70.9517 109.21 71.2791C109.639 71.4806 109.311 71.8332 109.084 71.8584C108.379 72.5637 110.142 73.5208 110.47 74.1756C110.47 73.1682 111.225 73.3445 111.578 72.6644C111.175 73.42 111.024 73.0926 110.596 73.5711C110.092 74.9564 111.276 74.0497 111.679 75.2587C111.024 77.6766 114.726 76.921 113.19 74.9312C112.384 73.8734 113.668 75.3594 113.593 75.9135C113.593 75.8128 114.147 75.6113 114.298 75.838C113.694 75.3594 113.366 76.3669 113.165 76.6188C112.157 77.2988 114.248 77.727 114.449 78.3819C115.683 80.1198 116.817 77.9285 118.655 78.3819C119.688 79.2886 121.25 77.9033 122.282 77.4499C121.879 76.4425 122.383 75.032 121.527 74.1001C122.358 74.1253 121.527 78.3819 123.038 77.3492C123.441 77.0218 124.7 77.9789 124.977 78.1804C125.38 79.9686 127.521 78.1048 128.101 79.6412C128.151 80.9761 126.866 81.8073 128.831 81.7317C127.194 81.3539 128.101 82.5629 127.37 82.8399C126.69 83.797 129.284 86.215 129.838 85.9379C128.68 86.6935 130.241 88.1292 130.216 89.1367C131.299 93.091 129.813 90.2701 129.31 96.0883C131.602 95.6349 134.825 96.8187 137.42 96.0379C135.279 97.2972 126.791 93.9222 130.241 98.1284C131.501 101.403 131.727 104.778 133.818 107.674C134.448 108.808 132.559 108.657 134.473 109.84C135.43 110.949 136.664 109.387 137.772 109.714C140.946 110.294 145.177 104.476 144.195 102.889C147.419 101.705 145.228 99.4129 146.134 97.6499C148.829 95.4586 151.021 94.7534 149.509 90.7738C144.397 93.6199 146.26 88.4314 144.774 90.3708C144.321 91.7309 144.119 94.6526 144.422 91.5294C145.731 90.0434 142.23 88.2803 141.198 89.3634C142.205 88.3055 143.918 89.7412 144.774 90.3708C145.555 88.9604 145.757 90.8998 145.807 91.5546C151.298 91.8065 148.426 89.5145 148.603 85.9631C150.24 82.9659 159.081 76.5432 156.688 73.2941C155.202 73.6215 151.096 75.3342 151.726 72.5889C151.071 72.74 150.819 72.9918 151.55 72.5889C151.172 71.4806 149.585 70.9265 149.056 69.9946C148.779 69.5916 148.729 67.8537 147.998 68.5841C146.966 68.9619 146.814 70.2968 146.865 71.2539C146.94 72.9415 145.908 71.8332 145.505 74.1001C145.807 73.42 145.832 72.3874 146.764 72.2111C146.764 67.4003 148.653 70.448 147.369 65.7884C146.714 65.1335 142.004 55.4114 145.077 60.1717C146.109 58.7109 147.243 63.1186 148.628 64.1009C148.804 66.2417 150.391 67.627 151.575 69.3649C151.827 68.3574 152.23 68.6849 153.111 68.6849C155.907 69.5412 154.194 67.6774 157.947 67.5011C156.411 67.7278 155.378 68.0048 154.471 69.0375C151.65 67.4003 150.441 70.6243 152.356 72.5637C152.507 72.7652 153.691 71.8836 153.691 71.8081C153.816 71.934 155.126 71.8081 155.151 71.4303C156.814 70.6495 159.66 69.8939 158.023 67.6774C159.232 66.5944 160.743 67.1737 160.466 64.8313C161.095 67.8537 156.637 66.3929 158.703 69.3397C158.426 69.3146 160.315 69.3397 160.239 68.5841C161.146 68.1308 162.027 67.9293 162.053 66.3425C162.254 65.8891 162.733 67.2744 162.682 66.0906C162.833 65.3098 163.891 64.932 162.959 64.252L163.035 64.3779Z" fill="#D2DEEC"/>
<path d="M156.587 92.562C155.605 91.353 154.774 95.1814 152.507 95.2822C151.827 96.7178 153.112 97.2971 152.104 99.2617C151.852 108.833 158.149 95.5088 156.587 92.562Z" fill="#D2DEEC"/>
<path d="M165.806 3.37508C166.032 3.5262 166.813 3.47583 166.41 3.12321C165.655 2.87134 164.143 3.45064 165.806 3.37508Z" fill="#D2DEEC"/>
<path d="M153.716 5.11286C157.544 3.70239 151.827 7.65674 157.468 4.58393C157.594 4.55874 157.217 4.50837 157.191 4.40762C157.846 3.24902 155.857 4.78543 155.655 4.58393C155.227 4.58393 152.582 4.33206 153.716 5.08767V5.11286Z" fill="#D2DEEC"/>
<path d="M163.388 5.74252C163.892 5.89364 165.403 5.89364 165.202 5.08766C164.622 4.8106 163.262 4.83579 163.388 5.74252Z" fill="#D2DEEC"/>
<path d="M164.068 4.48335C164.295 4.45817 165.378 4.48335 164.924 4.05518C164.572 4.05518 162.96 4.25667 164.068 4.48335Z" fill="#D2DEEC"/>
<path d="M166.082 4.40765C164.621 4.65952 167.77 4.96176 167.316 4.00466C166.737 3.97947 166.536 4.28171 166.082 4.40765Z" fill="#D2DEEC"/>
<path d="M160.063 4.7855C160.466 4.98699 160.693 5.11293 161.197 4.96181C161.222 5.13812 159.988 5.3648 160.869 5.64185C162.935 6.17078 162.179 4.83587 163.212 3.90396C164.824 1.41045 158.023 4.35732 160.089 4.7855H160.063Z" fill="#D2DEEC"/>
<path d="M158.603 5.66695C158.829 5.61658 159.61 5.59139 159.157 5.1884C158.779 5.11284 157.721 5.38989 158.603 5.66695Z" fill="#D2DEEC"/>
<path d="M129.285 7.48064C128.504 9.84821 133.164 7.05246 131.753 8.56367C130.67 8.81554 129.99 9.2941 131.35 9.94896C134.272 12.7951 133.793 5.33975 136.64 9.69709C137.068 9.77265 137.723 9.94896 137.974 9.44522C137.924 7.934 133.869 7.40508 133.214 5.91905C132.433 5.64199 132.433 6.42278 132.408 6.9769C131.627 6.29685 127.043 5.49087 129.26 7.48064H129.285Z" fill="#D2DEEC"/>
<path d="M135.203 6.29683C136.412 7.90879 142.986 6.04496 138.78 5.33972C137.647 5.7679 131.123 4.30706 135.203 6.29683Z" fill="#D2DEEC"/>
<path d="M110.898 25.2373C110.57 22.366 107.019 23.8772 105.76 24.3054C105.558 23.1972 104.5 23.0964 103.921 24.0283C103.921 26.3707 108.203 28.5872 110.898 25.2373Z" fill="#D2DEEC"/>
<path d="M104.752 19.5199C104.299 18.9658 100.622 18.462 103.291 18.0086C106.389 21.5852 104.047 14.8603 106.767 14.4573C108.253 13.0972 105.986 11.6615 106.062 10.5281C106.566 9.57103 107.951 11.863 107.699 9.64659C103.77 8.33687 107.976 6.57378 109.185 4.70995C110.167 4.50845 113.442 4.05509 111.276 2.79574C109.084 1.56158 108.228 4.15584 106.389 3.02242C105.961 2.72018 104.777 3.17354 105.08 2.36756C105.155 0.327422 98.254 -0.226691 96.5917 0.277048C93.7959 0.730413 84.0738 -0.125943 89.1364 3.09798C87.4992 3.34985 85.7865 1.05784 84.3257 2.19125C85.8369 3.67728 83.293 2.34238 82.4366 2.39275C81.1773 2.64462 77.0718 2.4935 77.3992 3.67728C77.5 4.4077 73.2434 3.97953 72.9915 5.69224C78.5327 6.69972 69.0372 7.43014 69.1883 8.6643C71.6314 10.3518 73.4953 8.71467 73.6464 9.84808C73.6464 11.0319 70.1202 9.39472 71.0521 10.8052C74.5531 12.1401 82.0085 10.6541 81.3032 16.8752C81.1017 17.5805 82.0588 18.1346 82.5626 17.5805C83.2426 16.7493 85.1568 19.0161 83.6456 18.8146C82.5122 17.5553 81.4292 19.7214 82.6381 20.0992C83.2678 20.4014 84.1745 20.5777 83.696 19.5451C87.2222 20.2503 81.6558 21.1822 82.9656 22.8697C82.9656 25.464 85.9376 29.368 88.8341 30.3251C90.3705 32.0378 90.4209 29.368 90.7483 28.2597C91.4536 27.5293 92.3099 26.4715 91.6047 25.464C93.3426 23.6001 94.0982 24.8595 95.5087 24.1291C97.7251 20.6281 101.428 22.2904 104.727 19.4947L104.752 19.5199Z" fill="#D2DEEC"/>
<path d="M63.3952 37.7299C62.7908 37.4025 62.1359 37.7299 63.093 38.007C63.3952 38.2841 63.7479 38.007 63.3952 37.7299Z" fill="#D2DEEC"/>
<path d="M52.4389 12.6942C51.5826 13.6009 54.4539 13.8528 54.3783 13.1728C54.5043 11.9386 53.119 12.1401 52.4389 12.6942Z" fill="#D2DEEC"/>
<path d="M56.5199 10.0748C57.0236 10.1503 57.2503 9.49548 56.7214 9.36954C56.1673 9.31917 55.7391 9.74735 56.5199 10.0748Z" fill="#D2DEEC"/>
<path d="M47.9559 12.2156C49.3916 12.9712 52.1873 14.2557 51.3562 11.1577C50.4998 10.2762 44.0016 10.931 47.9559 12.2156Z" fill="#D2DEEC"/>
<path d="M54.1018 9.69703C55.8649 8.89104 53.4721 9.1681 52.8677 9.31922C52.112 9.84815 53.8248 9.52072 54.1018 9.69703Z" fill="#D2DEEC"/>
<path d="M48.485 16.573C49.8199 17.6057 52.5904 18.8147 52.0111 15.7167C50.1473 15.6411 52.7667 14.9611 51.2303 14.281C50.651 14.7092 47.5027 14.3566 49.4169 15.4144C49.5932 15.6915 49.4169 15.9433 49.1146 16.0441C48.1072 15.4144 46.8982 16.1448 48.485 16.573Z" fill="#D2DEEC"/>
<path d="M48.7875 9.11776L48.2082 9.06738C48.0067 9.44519 48.8126 9.77262 48.7875 9.11776Z" fill="#D2DEEC"/>
<path d="M46.9486 12.3921C46.596 12.4928 46.4449 13.1981 46.9486 13.0973C47.2257 13.0218 47.1249 12.518 46.9486 12.3921Z" fill="#D2DEEC"/>
<path d="M63.5969 26.5974C62.3375 25.7662 59.4411 22.6178 59.567 26.2699C58.6854 26.8492 59.0381 26.8996 59.8944 26.7233C59.8944 28.2345 61.3301 26.547 61.7834 26.2447C62.0857 26.4966 63.8236 27.7811 63.6221 26.5974H63.5969Z" fill="#D2DEEC"/>
<path d="M72.4623 30.0983C72.2105 30.0983 72.2105 30.6273 72.4623 30.6525C72.8905 30.7784 72.7898 29.7961 72.4623 30.0983Z" fill="#D2DEEC"/>
<path d="M66.4432 27.1012C66.4935 26.9249 66.3928 26.7234 66.1913 26.7738C65.4609 26.6227 66.015 27.2776 66.4432 27.1012Z" fill="#D2DEEC"/>
<path d="M52.5395 6.39747C52.9425 6.54859 52.9928 6.49822 53.0936 7.00196C53.3706 7.682 54.9826 6.29672 54.5292 7.25383C54.4789 10.1251 58.5591 7.15308 59.8941 8.94135C61.0023 10.6541 57.4005 7.93387 58.4332 10.0244C56.5946 11.0571 54.5544 10.6792 52.4891 10.3266C51.0786 11.7371 55.8893 10.8304 55.1337 12.6438C57.8539 16.0693 73.0416 11.7875 56.8968 12.0142C57.2242 10.0999 61.6319 11.6867 63.2691 11.2334C63.1935 12.0897 65.813 11.2837 65.4856 10.5281C64.8559 9.9992 64.6544 9.64658 65.6619 9.47028C68.6843 7.3042 69.9688 5.36481 74.9055 3.85359C85.5595 -2.61945 40.7016 3.97952 61.8586 4.78551C61.2793 5.7678 59.7429 4.6092 58.8866 6.44784C58.3576 3.90396 58.0806 6.97677 56.4938 4.86107C55.0833 3.22392 51.9098 4.10546 52.5395 6.42266V6.39747Z" fill="#D2DEEC"/>
<path d="M73.4197 20.4771C73.3693 18.4621 69.9187 18.311 68.4831 17.0516C65.1584 15.0115 65.1332 13.7521 60.6499 15.2382C58.3327 13.0721 55.1592 17.7065 58.2068 19.0666C59.5165 19.7718 61.3048 19.1673 62.8412 19.6711C64.9569 21.0564 64.1257 19.394 65.2591 19.117C69.9943 22.1646 63.8235 21.7364 66.8459 22.6179C67.7526 22.7187 68.4579 20.4267 69.0624 22.1142C69.2639 22.6683 69.415 23.1469 68.7349 23.3232C67.4504 23.4995 69.0372 24.8848 68.0801 24.8344C64.3272 24.2803 64.5791 27.076 68.2564 25.8922C78.6334 32.4157 69.6165 25.1618 74.7042 27.7309C76.3414 26.6982 70.5736 23.4743 73.596 24.1543C74.5531 24.3558 75.6362 26.1945 75.9888 24.4818C80.4217 23.0713 69.9439 20.88 73.4197 20.4771Z" fill="#D2DEEC"/>
<path d="M64.5543 28.3352C64.4032 28.0582 64.0505 28.0078 63.849 28.5115C63.6979 29.1412 64.6046 28.9901 64.5543 28.3352Z" fill="#D2DEEC"/>
<path d="M65.5617 27.0508C65.3099 26.7737 64.8313 26.9248 65.3099 27.2522C65.6373 27.5797 66.1914 27.2522 65.5617 27.0508Z" fill="#D2DEEC"/>
<path d="M64.1257 34.9845C64.3524 35.0853 64.5539 34.783 64.705 34.7075C65.8636 34.1534 63.3449 34.1534 64.1257 34.9845Z" fill="#D2DEEC"/>
<path d="M62.4129 27.5293C62.0854 27.63 60.5238 27.9575 61.5313 28.2849C61.758 28.2849 63.0677 27.6552 62.4129 27.5293Z" fill="#D2DEEC"/>
<path d="M32.29 17.2277C34.6576 19.9731 36.2948 15.0365 36.6474 16.6233C36.32 17.0766 36.0177 17.8322 36.9748 17.53C41.181 18.8145 32.819 18.21 41.3322 21.2073C44.0272 21.5599 43.8257 19.5953 46.3192 20.4517C50.2231 22.3659 46.0169 18.1093 48.989 19.9731C49.1401 18.2604 45.3369 18.8145 46.168 15.9432C46.4955 13.8779 43.5486 14.6083 43.7753 16.1195C44.279 16.4218 44.7072 17.8574 43.7753 17.2529C42.9693 15.5402 40.7277 15.8677 39.2164 16.321C40.098 15.4143 37.5289 13.7268 36.3703 14.2809C35.1865 14.2809 33.8516 13.1475 32.7182 13.9534C32.1389 13.7268 32.7182 14.8602 32.7182 14.9609C32.29 15.5906 30.1995 17.4544 32.2649 17.2277H32.29Z" fill="#D2DEEC"/>
<path d="M34.7581 11.9638C35.7656 11.863 35.6648 12.8201 36.2441 11.3341C36.6219 10.5533 37.705 11.8126 37.9316 10.6792C41.0044 7.55605 29.9474 11.9638 34.7581 11.9638Z" fill="#D2DEEC"/>
<path d="M75.5859 40.8027C74.4777 40.7272 76.4675 42.0369 76.8453 41.6339C77.1475 41.105 75.9385 41.0042 75.5859 40.8027Z" fill="#D2DEEC"/>
<path d="M81.2028 40.0221C81.9836 37.4783 78.5078 42.3897 78.6086 42.8431C79.3894 43.5483 80.7243 42.7423 81.6058 42.8431C80.9762 44.1528 81.3288 43.7246 82.3866 43.2209C82.2607 44.3291 83.7215 43.9009 83.4193 42.9438C83.6208 40.274 80.4472 41.2311 81.2028 39.997V40.0221Z" fill="#D2DEEC"/>
<path d="M37.1758 11.6365C37.075 11.435 35.9164 11.8128 36.3446 12.2913C36.7224 12.8454 38.0825 11.6868 37.1758 11.6365Z" fill="#D2DEEC"/>
<path d="M46.1174 7.5057C48.8124 7.80794 44.5054 8.63911 47.9812 8.51318C48.8124 8.43761 50.9281 10.2763 50.1725 8.16056C49.4421 7.35458 45.0847 5.89373 46.1174 7.53089V7.5057Z" fill="#D2DEEC"/>
<path d="M37.9816 11.9637C36.143 14.0794 40.5255 12.7193 41.533 12.946C35.6644 14.6335 47.5778 13.7016 45.6888 11.737C43.3968 12.3667 44.3791 10.7548 43.1449 10.6792C41.7848 10.9311 42.7671 12.0645 43.3464 12.4423C41.407 12.5934 39.4676 9.64653 37.9816 11.9637Z" fill="#D2DEEC"/>
<path d="M46.2683 9.97396C46.5202 10.0747 46.6461 10.251 46.7217 9.8984C46.7217 8.9413 44.6815 9.29392 46.2683 9.97396Z" fill="#D2DEEC"/>
<path d="M50.8019 5.91881C50.6508 5.49063 49.6685 5.23876 49.4922 5.71732C49.8196 6.01956 50.9027 6.95148 50.8019 5.91881Z" fill="#D2DEEC"/>
<path d="M51.4823 8.51317C51.6082 9.24359 53.4973 9.14285 53.4973 8.36205C53.0187 7.78275 49.9711 7.15308 51.4823 8.51317Z" fill="#D2DEEC"/>
<path d="M40.5759 9.69692C42.1626 10.8303 44.4547 7.10266 42.4901 7.90865C41.0292 8.13533 39.7447 8.1857 41.7848 8.765C41.2307 8.71463 39.5432 8.9665 40.5759 9.69692Z" fill="#D2DEEC"/>
<path d="M0.956764 27.2775L0.780456 27.1515C-0.856695 26.9248 0.755269 28.3857 0.956764 27.2775Z" fill="#D2DEEC"/>
<path d="M1.81326 37.0249C1.33471 37.0249 0.830971 37.302 0.579102 37.7301C1.00728 38.0324 2.317 37.2012 1.81326 37.0249Z" fill="#D2DEEC"/>
<path d="M12.6183 32.4658C11.0819 32.2392 10.6034 35.4631 12.1398 33.4481C12.4924 33.2466 13.0969 33.02 12.6183 32.4658Z" fill="#D2DEEC"/>
<path d="M2.56859 30.3754C2.21597 30.325 1.25887 30.6273 1.76261 30.9799C2.26635 31.2821 3.55088 30.8539 2.56859 30.3754Z" fill="#D2DEEC"/>
<path d="M71.9589 68.1055C71.4551 66.7706 69.8935 67.0225 68.9364 66.6951C68.1556 66.7203 69.0372 67.2744 69.0876 67.6018C69.2135 68.2567 68.3319 67.6018 68.0801 67.7781C68.7098 69.2138 70.7247 67.5514 71.9337 68.1055H71.9589Z" fill="#D2DEEC"/>
<path d="M61.96 65.1081C61.7334 64.8563 61.6074 65.4607 61.6074 65.6371C61.96 65.8386 62.4638 65.1585 61.96 65.1081Z" fill="#D2DEEC"/>
<path d="M67.7276 66.7706C68.181 64.9571 59.4411 62.9673 60.9271 65.209C62.5139 63.8237 64.3526 65.6372 65.7379 66.292C64.9067 67.4254 67.1231 66.6446 67.7024 66.7706H67.7276Z" fill="#D2DEEC"/>
<path d="M64.8818 67.8789C65.1841 68.5841 65.8893 68.4582 66.4434 68.4078C66.519 67.7277 65.2345 67.4003 64.8818 67.8789Z" fill="#D2DEEC"/>
<path d="M68.4327 117.245C68.6594 115.281 66.9467 119.159 68.1809 117.724C68.1305 117.497 68.2564 117.371 68.4327 117.245Z" fill="#D2DEEC"/>
<path d="M95.3075 86.3912C93.494 85.7363 90.9501 83.1673 89.1115 84.7792C88.8092 83.8977 88.3055 82.991 86.8447 83.0162C86.618 83.0162 86.0387 83.3688 86.4921 83.5703C86.0387 83.9229 85.7616 83.6206 85.5853 84.3762C85.1823 84.0236 84.3512 82.991 83.6963 83.5955C84.9305 81.5301 85.4594 81.4294 84.0741 79.0114C82.8651 77.878 80.7746 77.0469 79.8427 78.4573C80.7998 78.1299 79.339 76.4676 79.0367 77.3743C79.2634 76.0898 78.5834 75.9134 77.6766 75.989C76.8706 75.6112 78.13 75.7371 77.727 75.2334C77.047 74.906 76.2913 74.9563 75.9387 74.2007C74.4023 75.2586 69.7427 71.9339 70.6998 74.906C69.0879 77.1224 70.2969 72.5888 69.9191 72.7903C69.0879 73.7725 67.1989 73.3444 67.224 74.6037C65.8891 76.5683 66.3677 75.2586 64.3527 74.9311C58.5849 77.3239 64.1764 68.2818 58.8368 70.0701C58.459 69.9441 57.6278 70.0449 57.5271 69.9441C58.1567 69.6671 58.2827 68.4329 57.9553 67.9796C58.4842 67.4003 58.8368 66.292 59.0383 65.3853C56.6455 65.0075 56.6959 66.2165 55.7388 67.8284C54.681 67.4003 53.9002 68.6596 52.9179 67.6773C50.2732 65.9394 51.7341 62.8918 51.5074 60.6502C52.3638 60.0457 55.9655 58.7108 56.6203 58.9626C58.7612 59.7434 55.1595 56.9477 60.071 58.5596C62.4133 57.8796 61.2547 59.8694 62.5141 60.902C62.5141 61.5317 63.6727 63.3452 63.8994 61.9851C60.5495 53.0941 68.3071 56.9729 66.544 52.0362C66.6448 50.4746 67.2996 50.1724 67.1485 51.8599C68.7353 50.2228 67.5515 49.5175 70.7502 48.5101C69.7176 46.2432 73.8482 45.3365 74.9061 44.9587C72.0599 48.4849 76.1654 45.2358 77.6766 45.2106C78.4826 45.0091 78.6337 43.9008 77.8026 43.6994C76.4173 45.4624 76.4928 43.6994 74.7549 43.6994C74.8557 42.8682 74.9061 42.7171 73.949 42.5156C77.324 41.9363 72.8407 40.7525 71.934 42.2637C69.1131 45.2106 71.5814 41.5836 73.3193 40.8532C75.435 40.6014 83.3437 39.8709 80.825 37.0248C80.0946 36.244 77.3996 38.259 78.2307 36.9241C82.1347 35.9921 77.3492 36.5966 75.6113 31.0303C74.1253 29.2924 74.9564 31.257 73.4956 32.1889C73.1682 32.9697 72.9163 32.2393 72.4126 32.1637C70.7754 32.2897 71.934 29.9725 71.3295 29.5695C69.1383 29.4184 70.1961 28.8894 69.0879 28.4361C67.8789 28.8139 64.2016 27.1012 65.7128 29.4435C64.932 30.048 65.3854 30.1488 65.7128 30.854C64.3275 32.5667 66.0654 32.5164 66.4432 34.0528C66.3677 35.9166 65.461 35.5388 64.2268 36.1685C64.9572 37.1507 65.5365 38.6872 64.1512 39.4428C63.043 39.4679 62.0859 37.2767 62.237 36.0929C60.1717 35.2114 57.5019 33.272 54.958 33.7757C55.361 32.9445 54.6558 31.0555 53.7239 32.2393C51.86 28.7635 58.2071 27.353 55.7388 26.7485C56.8722 26.6226 57.9553 26.547 58.8368 25.5899C59.4917 24.6328 57.0485 25.5144 57.25 24.4313C60.4488 25.4892 58.6353 23.7513 59.5168 23.575C59.9702 22.9957 61.6325 24.8595 60.9021 23.3987C60.3732 22.9705 61.1792 22.8949 61.154 23.4742C61.7081 24.1543 64.1261 22.8446 62.2118 21.5852C62.237 21.1067 63.3956 21.3585 62.5897 20.8296C62.5897 20.6281 62.9675 20.5777 62.766 20.3762C61.3807 20.1244 59.1139 18.5124 60.3732 21.0815C59.6932 21.2074 59.945 21.6608 59.5168 21.9378C59.4161 21.1067 58.9375 21.56 59.1894 22.1393C59.8695 22.5423 58.5094 23.1972 58.4842 22.3912C57.4263 21.2326 58.5346 21.8119 58.4842 20.9807C58.0308 19.9984 56.8218 20.5777 56.9478 21.5852C55.6884 20.6029 57.2248 19.6206 55.4617 19.5199C55.6129 17.7064 53.6987 17.6057 53.5979 16.9508C54.2276 16.7745 54.7061 16.0945 54.0261 15.5655C57.0989 16.2204 57.7034 14.0291 53.6987 14.281C51.86 14.4321 53.4972 16.296 52.6408 17.5049C51.8852 18.7391 52.3638 20.074 53.9253 19.9733C55.5877 21.2326 52.4141 21.4089 53.0438 22.3912C52.7164 23.7261 52.3386 21.6356 52.0867 21.3585C53.472 21.1822 52.0867 19.7214 51.3563 19.7718C50.5503 20.5526 49.2406 20.5526 51.1044 21.1319C49.8702 24.5069 45.5885 19.3688 43.5231 21.56C45.0847 22.5675 44.0521 24.0787 43.2461 22.2149C42.2386 21.3837 40.274 22.8194 38.9895 21.8371C40.8533 20.8548 34.884 19.7214 34.0277 19.9229C33.2721 19.3436 32.3401 21.157 32.315 19.4947C30.2244 20.6281 30.7534 17.6812 29.5444 19.4947C27.8065 20.5022 26.4968 21.157 28.6628 19.4695C29.1666 18.6635 26.8998 19.9481 26.522 19.8221C25.7915 20.5022 25.0359 19.2932 24.1796 20.3259C23.0713 21.1067 21.8372 19.7718 20.603 19.9984C16.7998 18.8398 11.9891 17.8576 8.31181 18.462C5.21381 18.9154 6.44797 19.3184 4.15596 20.2755C0.226799 20.7792 5.239 22.5927 5.64199 23.3987C7.88363 24.784 2.39288 22.7942 1.53652 24.255C1.43577 24.8343 2.19138 24.7336 2.49362 24.9099C1.93951 27.3027 5.54124 25.0862 6.09536 25.7159C6.75022 27.5041 3.40035 26.9752 2.94699 28.8139C3.09811 30.048 3.90409 31.6852 5.33975 30.451C6.17092 29.6954 5.11306 32.063 6.47316 31.8111C7.20358 32.7178 10.5786 31.1059 8.28662 33.2216C7.43026 34.5817 5.76792 34.9343 4.43302 35.7907C1.3854 36.8233 4.48339 36.6722 5.84349 36.1685C9.49559 35.0602 11.1831 30.2243 14.0292 29.6954C10.8809 32.1385 15.5153 31.7356 15.5405 29.7962C17.1272 29.8969 19.1422 31.6096 20.6282 30.1236C22.6684 30.2747 22.8447 32.7934 24.2299 31.0555C25.8671 31.3326 26.4716 33.952 28.1339 34.6572C29.091 35.4129 27.4287 36.4959 28.1591 37.5789C30.7786 38.3597 30.4007 41.0043 32.592 42.44C32.592 46.4699 32.0631 51.2554 35.3122 54.6305C37.7301 55.3861 37.8561 58.1566 39.5688 59.6427C39.6444 60.3479 38.3598 60.3983 39.8207 60.9776C41.08 61.2798 40.803 62.2873 41.3571 63.2192C42.0119 63.3955 42.1882 64.1511 42.6668 64.3274C42.969 62.4636 38.6872 58.9374 39.4177 57.1744C41.1052 58.0055 41.4074 60.5494 43.2209 61.5821C42.8431 63.0933 47.0241 64.2267 45.664 66.5187C47.4523 68.6344 51.054 70.4731 53.6987 69.7174C55.0336 70.599 55.9151 71.8332 57.5019 71.9087C58.4338 72.2613 58.8872 72.8658 59.8191 73.7222C59.3909 73.9237 60.1213 75.2082 60.348 74.6289C60.8518 74.8808 61.154 75.309 61.557 75.8127C61.8844 76.2912 62.3378 75.4853 62.766 76.3668C63.2445 76.2661 63.6727 77.198 63.9749 76.4172C62.7911 75.989 64.7054 75.183 65.3854 75.8379C64.9068 76.0142 65.0832 76.5935 65.5365 76.6942C66.2166 78.3062 65.9647 79.893 64.8817 80.9508C64.3276 81.0264 64.7809 81.3538 65.058 81.4042C63.6475 82.2102 63.6475 82.7895 63.5216 84.1496C63.2949 85.157 65.1587 83.6206 63.8742 85.283C64.0001 84.5526 63.0178 85.6356 63.0682 85.8623C62.9423 86.2401 63.5468 86.8446 63.1438 86.9453C66.0403 89.1618 65.5617 94.3251 69.6168 95.4837C73.7223 99.8158 67.0981 112.258 68.9619 116.716C69.5664 116.943 68.6093 118.202 68.2315 118.303C67.9041 119.311 67.6522 120.343 67.1737 121.2C69.1383 120.771 66.9974 122.056 67.1737 122.912C67.224 124.751 67.627 126.237 68.7101 127.37C70.0954 128.655 72.3622 130.569 73.8986 128.63C73.3445 128.277 70.3976 125.733 71.934 126.136C72.7904 126.841 72.0599 125.406 71.4806 125.557C71.934 125.053 71.6821 124.751 72.0096 124.02C73.4452 124.675 72.74 122.711 73.7223 122.333C74.9816 121.25 73.1178 121.527 72.9163 120.57C76.921 116.767 72.7652 115.407 76.1654 115.86C77.1477 115.658 76.4425 114.55 76.6188 113.87C84.7542 114.525 76.1402 107.296 80.6739 106.44C81.505 107.498 83.2681 107.75 83.0163 109.286C84.2504 107.876 86.9958 104.803 86.4921 102.712C89.2878 98.6824 93.0658 102.964 93.1918 92.9146C93.9978 91.6301 97.6499 87.8017 95.4082 86.3408L95.3075 86.3912Z" fill="#D2DEEC"/>
<path d="M84.7538 83.3687C85.3834 84.1747 86.3405 83.2428 86.265 82.4872C85.4338 82.2857 84.5774 82.2857 84.7538 83.3687Z" fill="#D2DEEC"/>
<path d="M75.561 116.691C75.6113 116.691 75.3091 116.666 75.3343 116.691C74.352 117.22 76.5181 117.447 75.561 116.691Z" fill="#D2DEEC"/>
<path d="M71.5309 72.5383C71.2034 72.765 71.7575 72.9917 71.7072 72.5383H71.5309Z" fill="#D2DEEC"/>
<path d="M76.7702 73.042C76.9969 73.1427 76.9465 72.8405 76.871 72.7397C76.7451 72.7901 76.6191 72.9412 76.7702 73.042Z" fill="#D2DEEC"/>
<path d="M72.1857 73.1177C72.5131 73.3695 72.6139 72.891 72.4879 72.7651C72.2109 72.5887 71.9338 72.891 72.1857 73.1177Z" fill="#D2DEEC"/>
<path d="M77.2991 74.4777C77.4502 74.377 77.4502 74.1251 77.3998 73.974C76.7702 73.6214 76.745 74.7296 77.2991 74.4777Z" fill="#D2DEEC"/>
<path d="M77.2738 72.1858C77.425 72.1102 77.3242 71.9339 77.1983 71.8835C77.1479 71.9591 77.0723 72.2362 77.2738 72.1858Z" fill="#D2DEEC"/>
<path d="M61.5566 70.5989V70.6744C61.5566 70.6744 61.5818 70.6493 61.5566 70.5989Z" fill="#D2DEEC"/>
</g>
<defs>
<clipPath id="clip0_105_649">
<rect width="256" height="129.612" fill="white"/>
</clipPath>
</defs>
</svg>
